<?xml version="1.0" encoding="UTF-8"?>
<svg xmlns="http://www.w3.org/2000/svg" xmlns:xlink="http://www.w3.org/1999/xlink" width="30px" height="30px" viewBox="0 0 30 30" version="1.1">
<g id="surface1">
<path style="fill:none;stroke-width:2;stroke-linecap:round;stroke-linejoin:miter;stroke:rgb(0%,0%,0%);stroke-opacity:1;stroke-miterlimit:4;" d="M 3 9 L 21 9 M 7 3 L 7 5 M 17 3 L 17 5 M 6 12 L 8 12 M 11 12 L 13 12 M 16 12 L 18 12 M 6 15 L 8 15 M 11 15 L 13 15 M 16 15 L 18 15 M 6 18 L 8 18 M 11 18 L 13 18 M 16 18 L 18 18 M 6.2 21 L 17.8 21 C 18.91875 21 19.48125 21 19.909375 20.78125 C 20.284375 20.590625 20.590625 20.284375 20.78125 19.909375 C 21 19.48125 21 18.91875 21 17.8 L 21 8.2 C 21 7.08125 21 6.51875 20.78125 6.090625 C 20.590625 5.715625 20.284375 5.409375 19.909375 5.21875 C 19.48125 5 18.91875 5 17.8 5 L 6.2 5 C 5.08125 5 4.51875 5 4.090625 5.21875 C 3.715625 5.409375 3.409375 5.715625 3.21875 6.090625 C 3 6.51875 3 7.08125 3 8.2 L 3 17.8 C 3 18.91875 3 19.48125 3.21875 19.909375 C 3.409375 20.284375 3.715625 20.590625 4.090625 20.78125 C 4.51875 21 5.08125 21 6.2 21 Z M 6.2 21 " transform="matrix(1.25,0,0,1.25,0,0)"/>
</g>
</svg>
