<?xml version="1.0" encoding="UTF-8"?>
<svg xmlns="http://www.w3.org/2000/svg" xmlns:xlink="http://www.w3.org/1999/xlink" width="30px" height="30px" viewBox="0 0 30 30" version="1.1">
<g id="surface1">
<path style="fill:none;stroke-width:2;stroke-linecap:round;stroke-linejoin:round;stroke:rgb(0%,0%,0%);stroke-opacity:1;stroke-miterlimit:4;" d="M 14 10.5 C 14 11.88125 11.7625 13 9 13 C 6.2375 13 4 11.88125 4 10.5 M 14 10.5 C 14 9.11875 11.7625 8 9 8 C 6.2375 8 4 9.11875 4 10.5 M 14 10.5 L 14 14.5 M 4 10.5 L 4 14.5 M 20 5.5 C 20 4.11875 17.7625 3 15 3 C 13.021875 3 11.309375 3.575 10.5 4.409375 M 20 5.5 C 20 6.425 18.99375 7.234375 17.5 7.665625 M 20 5.5 L 20 14 C 20 14.740625 18.99375 15.3875 17.5 15.73125 M 20 10 C 20 10.75625 18.95 11.415625 17.4 11.75625 M 14 14.5 C 14 15.88125 11.7625 17 9 17 C 6.2375 17 4 15.88125 4 14.5 M 14 14.5 L 14 18.5 C 14 19.88125 11.7625 21 9 21 C 6.2375 21 4 19.88125 4 18.5 L 4 14.5 " transform="matrix(1.25,0,0,1.25,0,0)"/>
</g>
</svg>
